<svg xmlns="http://www.w3.org/2000/svg" width="35" height="34" viewBox="0 0 35 34">
  <defs>
    <style>
      .icon-2 {
        fill: #69c6b4;
      }
    </style>
  </defs>
  <g>
    <path class="icon-2" d="M.29,14.07a17.11,17.11,0,0,0,0,6.3l4.12-3.21Z"/>
    <path class="icon-2" d="M24.4,1.59A17.2,17.2,0,0,0,9.15,2l7.51,5.63Z"/>
    <path class="icon-2" d="M33.9,13.17l-4.81,3.75L34,20.62A17.34,17.34,0,0,0,33.9,13.17Z"/>
    <path class="icon-2" d="M9.21,32.41a17.22,17.22,0,0,0,15.73.12l-8.1-6.06Z"/>
    <path class="icon-2" d="M7.91,14.43,1.68,9.77a17.18,17.18,0,0,0-.82,2.05l5.3,4Z"/>
    <path class="icon-2" d="M18.59,25.1l8.34,6.24c.28-.19.55-.39.82-.6s.62-.5.92-.77l-8.33-6.23Z"/>
    <path class="icon-2" d="M11.41,11.71,4,6.16A19,19,0,0,0,2.73,7.88l6.93,5.19Z"/>
    <path class="icon-2" d="M22.09,22.38l8.09,6.05a15,15,0,0,0,1.3-1.7L23.84,21Z"/>
    <path class="icon-2" d="M14.91,9,7.2,3.2l-.58.43c-.39.31-.77.63-1.13,1l7.67,5.74Z"/>
    <path class="icon-2" d="M25.59,19.65l7,5.22a17.15,17.15,0,0,0,.86-2l-6.08-4.55Z"/>
    <path class="icon-2" d="M26.45,2.71.88,22.63a17.13,17.13,0,0,0,.84,2.06L28.24,4A16.07,16.07,0,0,0,26.45,2.71Z"/>
    <path class="icon-2" d="M30.74,6.62c-.3-.38-.61-.75-.94-1.1l-27,21.05c.26.4.54.79.84,1.18l.43.53,27.1-21.1C31,7,30.89,6.81,30.74,6.62Z"/>
    <path class="icon-2" d="M32.3,9,5.55,29.84a18.44,18.44,0,0,0,1.71,1.38L33.22,11A17,17,0,0,0,32.3,9Z"/>
  </g>
</svg>
