<svg xmlns="http://www.w3.org/2000/svg" width="55" height="23" viewBox="0 0 55 23">
  <defs>
    <style>
      .icon-4 {
        fill: #69c6b4;
      }
    </style>
  </defs>
  <g>
    <path class="icon-4" d="M40.31,5.71A47.8,47.8,0,0,0,28,4.05a46.38,46.38,0,0,0-7.71.62L13.46,0H0L5.81,6.19h8.45A22,22,0,0,0,7.5,9.7v3.78A24.33,24.33,0,0,0,14.43,17H5.81L0,23.18H13.46l6.81-4.69a44,44,0,0,0,7.68.65,48.22,48.22,0,0,0,12.36-1.67,10.7,10.7,0,0,1-1.92-5.87A10.66,10.66,0,0,1,40.31,5.71Z"/>
    <path class="icon-4" d="M43.73,6.75a7.87,7.87,0,0,0-2,4.84,7.79,7.79,0,0,0,2,4.84,48.43,48.43,0,0,0,10.42-4.84A48.38,48.38,0,0,0,43.73,6.75Z"/>
  </g>
</svg>
