<svg xmlns="http://www.w3.org/2000/svg" width="31.97" height="37.3" viewBox="0 0 31.97 37.3">
  <defs>
    <style>
      .icon-1 {
        fill: #69c6b4;
      }
    </style>
  </defs>
  <title>icon-11</title>
  <path class="icon-1" d="M16,37.3a16,16,0,0,0,16-16A16,16,0,0,0,16,37.3ZM4.63,16.43a4.44,4.44,0,0,0,7,3.66l0,.34a4.45,4.45,0,0,0,8.89,0l0-.34a4.37,4.37,0,0,0,2.51.78,4.43,4.43,0,0,0,1.9-8.44,4.43,4.43,0,1,0-4.41-7.65l0-.34a4.45,4.45,0,0,0-8.89,0l0,.34A4.37,4.37,0,0,0,9.07,4a4.43,4.43,0,0,0-1.9,8.43A4.42,4.42,0,0,0,4.63,16.43ZM16,8a4.44,4.44,0,1,1-4.45,4.44A4.44,4.44,0,0,1,16,8ZM0,21.31a16,16,0,0,0,16,16A16,16,0,0,0,0,21.31Z"/>
</svg>
