<svg xmlns="http://www.w3.org/2000/svg" width="40.22" height="62.41" viewBox="0 0 40.22 62.41">
  <g>
    <path d="M15.18,38a8,8,0,0,0,0,3.64c.5,2.63,1.69,6,2.36,9.67h5.07c.69-3.64,1.94-7.05,2.47-9.69a7.72,7.72,0,0,0,0-3.61,4.13,4.13,0,0,0-2-2.31h-6A4,4,0,0,0,15.18,38Z"/>
    <path d="M27,58H13.21a2.24,2.24,0,0,0-2.3,2.23v2.23h18.4V60.18A2.24,2.24,0,0,0,27,58Z"/>
    <path d="M34.14,2.23H22.41a2.3,2.3,0,0,0-4.6,0H6.07L0,27.75a5.09,5.09,0,0,1,2.63-1,4.53,4.53,0,0,1,2.93,1.38A3.14,3.14,0,0,0,7,29a3.15,3.15,0,0,0,1.45-.84,4.54,4.54,0,0,1,2.92-1.36,4.54,4.54,0,0,1,2.92,1.36,3.15,3.15,0,0,0,1.45.84,1.28,1.28,0,0,0,.58-.22,7.87,7.87,0,0,0,.87-.62,5.82,5.82,0,0,1,2-1.22,3,3,0,0,1,.93-.14A4.54,4.54,0,0,1,23,28.14a3.15,3.15,0,0,0,1.45.84,3.3,3.3,0,0,0,1.45-.85,4.5,4.5,0,0,1,2.92-1.37,4.52,4.52,0,0,1,2.92,1.37,7,7,0,0,0,.87.63,1.17,1.17,0,0,0,.58.22,3.19,3.19,0,0,0,1.44-.86,4.51,4.51,0,0,1,2.93-1.38,5.09,5.09,0,0,1,2.63,1Z"/>
    <path d="M23.52,53.5H16.66a1.11,1.11,0,1,0,0,2.22h6.9a1.11,1.11,0,1,0,0-2.22Z"/>
    <path d="M20.11,29a1.37,1.37,0,0,0-.58.21c-.16.1-.37.27-.57.41v3.74h2.3V29.63A2.76,2.76,0,0,0,20.11,29Z"/>
  </g>
</svg>
