<svg xmlns="http://www.w3.org/2000/svg" width="112.39" height="46.09" viewBox="0 0 112.39 46.09">
  <defs>
    <style>
      .a {
        fill: #fff;
      }
    </style>
  </defs>
  <path d="M110.23,41.88c4.39.87.84-35.86.14-38.31C108.42-3,83.7,1.43,78.2,1.85c-12.73,1-25.19-1-37.62-.37-6.2.29-34.85-1.82-37.52,2C-2,10.67.41,29.26,1.79,38.54c-4,.78,2.31,4.15,3.13,4.9,6.32,2.19,16.36-.22,23,.39,15.44,1.47,31.8-2.19,47.28-.95,4.49,1.14,9.6,1,14.22,1.24,3.42,5.57,19.67-2.47,20.8-2.24Z" transform="translate(0 0)"/>
  <g>
    <path class="a" d="M26.06,24.41c-.08-2.55-.49-5.07-.45-7.62,0-2.07.37-4.19-.34-6.17,0-.22.09-.45.13-.67.18-1-3.1-.47-3.62.44a.77.77,0,0,0-.35.91l.09.24A73,73,0,0,1,19,20.47c-.38,1.13-.84,2.23-1.23,3.36a35.25,35.25,0,0,1-1.56-3.21c-1.3-3.26-2.48-6.55-4.07-9.68.18-1.45-3-1.3-3.67,0a8.21,8.21,0,0,0-.42,4.95,41.54,41.54,0,0,1,.36,5.8c.05,3.77.34,7.53.4,11.31a.94.94,0,0,0-.09,1.3,3.78,3.78,0,0,0,.54.52c.86.69,3.33.1,3.32-1.21,0-3.91-.29-7.81-.4-11.72,0-.39,0-.77,0-1.15.06.14.11.27.16.41a33,33,0,0,0,2.08,4.42A20.72,20.72,0,0,1,16.14,30a.73.73,0,0,0-.22.68c0,.17.06.27.24.34.6.52,1.74.26,2.38,0a5.74,5.74,0,0,0,.78-.4c.33-.2.84-.65.69-1.1,0-.09-.05-.18-.08-.27a23.24,23.24,0,0,0,.92-3.72,22.66,22.66,0,0,1,1.23-3.93c0,.59.1,1.18.14,1.77.2,2.42,0,4.81,0,7.23A10.84,10.84,0,0,0,22.44,33a9.48,9.48,0,0,1,.26,1.79.73.73,0,0,0,.37,1.36,3.17,3.17,0,0,0,2.63-.7c1.14-1,.6-2.7.34-4C25.61,29.16,26.13,26.67,26.06,24.41Z" transform="translate(0 0)"/>
    <path class="a" d="M34,25.05c-.07-1.89-.73-3.66-.74-5.57a46.05,46.05,0,0,0-.15-6.54c-.1-.68-3.84.1-3.71,1a37.91,37.91,0,0,1,.15,6,36.31,36.31,0,0,0,.69,5.6c.26,1.95-.08,3.95.14,5.9.11.91.72,2.6.09,3.4-.4.5,1.39.32,1.47.31a3.69,3.69,0,0,0,2.19-1c.62-.78.18-2.3,0-3.18A51.53,51.53,0,0,1,34,25.05Z" transform="translate(0 0)"/>
    <path class="a" d="M49.49,21.9c-2-2.64-5.59-.74-8.12-1.46-1.31-.37-1.33-2.16-1.32-3.22a34.45,34.45,0,0,0-.26-3.94,3.23,3.23,0,0,1,.71-2.75,4.64,4.64,0,0,1,.76-.33,8.27,8.27,0,0,1,1-.08c1.47-.07,4.37.22,3.81,2.35-.25,1,3.41.41,3.68-.6C50.92,7.5,42.86,8.34,40.58,9c-2.1.55-4.41,1.75-4.53,4.17-.06,1.16.26,2.26.31,3.4a12.49,12.49,0,0,0,.27,3.91c1,2.83,5.24,1.5,7.38,1.66,3.65.27,2.56,5.19,2.61,7.48,0,1.22,1.12,3.25.2,4.28-.57.62-1.88.66-2.65.73s-2.09.29-2.6-.44c-1-1.35.08-3.61-.12-5.15-.11-.88-3.86-.09-3.71,1,.32,2.49-1.33,5.83,2.27,6.25a17,17,0,0,0,7.12-.88,8.25,8.25,0,0,0,3.08-1.7c1-.89.66-2.23.39-3.36C50,27.53,51.3,24.34,49.49,21.9Z" transform="translate(0 0)"/>
    <path class="a" d="M65.93,21.72c-.11-3.58-.65-7.13-.67-10.72,0-1.87-3.76-1.24-3.75.33,0,3.42.47,6.8.65,10.21v.21c-1.85,0-3.7.17-5.55.23.19-4.39-.58-8.75-.42-13.14,0-.56-3.67-.09-3.71,1-.17,4.25.55,8.46.43,12.71-.06,2-.24,4.05-.25,6.07a20.1,20.1,0,0,0,.31,3.1,7.82,7.82,0,0,1,.17,3.15c-.22.73,3.38.28,3.67-.66.51-1.68-.21-3.83-.38-5.54a29.61,29.61,0,0,1,.07-5,28.53,28.53,0,0,1,5.77,0c.09,1.31.19,2.61.31,3.92.1,1.1.17,2.2.19,3.3a10.26,10.26,0,0,1-.21,3.28c-.74,2,3,1.8,3.53.35.67-1.78.48-4,.36-5.85C66.32,26.35,66,24,65.93,21.72Z" transform="translate(0 0)"/>
    <path class="a" d="M82,26a68.93,68.93,0,0,0-3.43-7.4c1-1.85,1.92-3.7,2.78-5.59.79-1.71,1.38-3.62,2.93-4.83.54-.43.52-.85-.25-.9A4.22,4.22,0,0,0,81.4,8a10.22,10.22,0,0,0-3,4.05c-.89,1.95-1.8,3.86-2.77,5.76l-.21.43a1.1,1.1,0,0,0-.61,1.2c-.75,1.48-1.51,3-2.37,4.37-.28-5.25-.9-10.49-1.09-15.75,0-1.21-3.77-.46-3.71,1,.23,6.51,1.15,13,1.22,19.53l0,.05c-.29.29-.18.47,0,.57,0,1.66-.06,3.32-.2,5-.45.7.44,1.08,1,1.08h.09c.7,0,2.49-.33,2.58-1.3a59.56,59.56,0,0,0,.22-6,29.4,29.4,0,0,0,3.85-5.35A28.46,28.46,0,0,1,78.29,27c.81,2.61,2.18,5,3,7.61.52,1.71,4.23.7,3.71-1C84.18,31,82.88,28.55,82,26Z" transform="translate(0 0)"/>
    <path class="a" d="M104.31,21.57c-.2-.79-1.31-.81-2.16-.73l0-1c-.12-2.52-.16-5.1-.37-7.62-.2-2.33-1.51-3.17-3.77-3.08a23.07,23.07,0,0,0-7.1,1.33,6.63,6.63,0,0,0-4.33,5.39c-.52,2.86.23,5.9.35,8.78.15,3.32.07,6.65.06,10,0,.54,3.72,0,3.72-1,0-2.63,0-5.27,0-7.9,0-.78-.05-1.55-.1-2.32,1.3-.56,3.5,0,4.79.14a14.36,14.36,0,0,0,3.08-.28c0,2.19.1,4.4.19,6.59,0,1.12.46,3.35-.33,4.28-.41.49,1.4.33,1.47.32a3.78,3.78,0,0,0,2.19-1c.9-1.06.43-3.6.38-4.87-.07-1.81-.1-3.63-.13-5.44C103.31,23.05,104.51,22.38,104.31,21.57Zm-13.88-.14c-.09-1.19-.2-2.37-.28-3.56-.15-2.21.11-5.29,2.17-6.64a6.84,6.84,0,0,1,2.23-.41,3.48,3.48,0,0,1,2.69.18c1.15.76.86,3.47.86,4.62,0,1.9.2,3.79.3,5.7a14.17,14.17,0,0,1-1.6.07C94.63,21.34,92.49,21,90.43,21.43Z" transform="translate(0 0)"/>
    <path class="a" d="M30.78,10.37a3.07,3.07,0,0,0,1.4-.5l.24-.2c.5-.32.92-.79.69-1.29a7.41,7.41,0,0,1-.39-3.24C32.73,4.23,31.81,4,31,4S29,4.57,29,5.46a14.91,14.91,0,0,0,.1,2.84,2.19,2.19,0,0,0-.1.34.67.67,0,0,0,.14.56v.13c0,.1,0,.21,0,.31a.87.87,0,0,0,.41.51A2.08,2.08,0,0,0,30.78,10.37Z" transform="translate(0 0)"/>
  </g>
</svg>
