<svg xmlns="http://www.w3.org/2000/svg" width="85.59" height="35.03" viewBox="0 0 85.59 35.03">
  <g>
    <path d="M4.18,26.3c0-3.47-.26-6.94-.36-10.41,0-.34,0-.68,0-1l.15.37a28.55,28.55,0,0,0,1.84,3.92,18.06,18.06,0,0,1,1.52,3.93.66.66,0,0,0-.2.6c0,.15.06.25.21.31.54.46,1.55.23,2.12,0a4.52,4.52,0,0,0,.69-.36c.29-.18.75-.57.62-1a2.17,2.17,0,0,1-.07-.24,21.61,21.61,0,0,0,.81-3.31,21.27,21.27,0,0,1,1.09-3.48c0,.52.09,1,.13,1.56.17,2.15,0,4.27,0,6.43a9.6,9.6,0,0,0,.18,2.07,8.91,8.91,0,0,1,.24,1.59.65.65,0,0,0,.32,1.21,2.83,2.83,0,0,0,2.34-.62c1-.94.53-2.4.3-3.58-.39-2,.08-4.18,0-6.19-.07-2.26-.43-4.5-.4-6.77,0-1.83.32-3.71-.31-5.47,0-.2.08-.39.12-.6.16-.87-2.75-.41-3.21.4-.29.23-.44.51-.31.8,0,.07.05.15.08.22a64.79,64.79,0,0,1-2.21,7.93c-.34,1-.75,2-1.09,3A30.06,30.06,0,0,1,7.4,14.74C6.25,11.85,5.2,8.93,3.79,6.15,4,4.86,1.1,5,.53,6.17a7.32,7.32,0,0,0-.37,4.39,37.1,37.1,0,0,1,.32,5.15c0,3.35.3,6.69.35,10a.86.86,0,0,0-.07,1.16,2.33,2.33,0,0,0,.48.46C2,28,4.18,27.46,4.18,26.3Z" transform="translate(0 0)"/>
    <path d="M22.38,7.93c-.09-.61-3.42.08-3.3.88a33.05,33.05,0,0,1,.13,5.36,33.26,33.26,0,0,0,.62,5c.22,1.73-.07,3.5.12,5.23.09.81.64,2.31.08,3-.36.45,1.24.28,1.31.27a3.3,3.3,0,0,0,1.94-.87c.55-.7.16-2,0-2.83a44.29,44.29,0,0,1-.16-5.28c-.06-1.68-.64-3.26-.65-4.95A41.58,41.58,0,0,0,22.38,7.93Z" transform="translate(0 0)"/>
    <path d="M25.5,14.57c.91,2.52,4.65,1.33,6.55,1.47,3.24.24,2.27,4.61,2.31,6.65,0,1.08,1,2.88.18,3.79-.5.56-1.67.59-2.35.65s-1.85.26-2.31-.39c-.84-1.19.08-3.2-.1-4.57-.1-.78-3.43-.08-3.3.89.29,2.21-1.18,5.17,2,5.55a15.08,15.08,0,0,0,6.32-.78,7.47,7.47,0,0,0,2.73-1.51c.87-.79.59-2,.35-3-.57-2.46.62-5.29-1-7.45-1.73-2.35-5-.66-7.21-1.3-1.16-.33-1.17-1.91-1.17-2.86a31.3,31.3,0,0,0-.23-3.49,2.87,2.87,0,0,1,.63-2.45,3.47,3.47,0,0,1,.68-.28,6.41,6.41,0,0,1,.9-.08c1.3-.06,3.88.2,3.39,2.09-.23.85,3,.36,3.26-.54C38.18,3.1,31,3.84,29,4.38c-1.86.5-3.91,1.56-4,3.71-.05,1,.23,2,.27,3A11.44,11.44,0,0,0,25.5,14.57Z" transform="translate(0 0)"/>
    <path d="M40,16.44c-.05,1.8-.2,3.6-.22,5.4A19.56,19.56,0,0,0,40,24.59a6.94,6.94,0,0,1,.16,2.79c-.2.65,3,.24,3.25-.58.46-1.5-.19-3.41-.34-4.92a26.14,26.14,0,0,1,.07-4.42,25,25,0,0,1,5.12,0c.08,1.16.16,2.32.27,3.48.09,1,.15,1.95.17,2.93a8.87,8.87,0,0,1-.19,2.91c-.65,1.73,2.66,1.59,3.14.31A13.14,13.14,0,0,0,52,21.89c-.13-2.06-.4-4.11-.47-6.17-.1-3.18-.58-6.33-.59-9.52,0-1.66-3.34-1.09-3.33.29,0,3,.41,6,.57,9.07,0,.06,0,.12,0,.19-1.64,0-3.28.14-4.93.2.17-3.9-.52-7.77-.37-11.67,0-.49-3.26-.08-3.3.88C39.43,8.93,40.07,12.67,40,16.44Z" transform="translate(0 0)"/>
    <path d="M54,21.82c-.25.25-.15.41,0,.5,0,1.47,0,2.95-.18,4.43-.39.62.39,1,.91,1h.09c.62,0,2.2-.3,2.28-1.15a49.52,49.52,0,0,0,.2-5.3,27,27,0,0,0,3.42-4.75,25,25,0,0,1,1.67,3.86c.73,2.31,1.94,4.43,2.64,6.75.46,1.52,3.75.62,3.3-.88-.7-2.32-1.86-4.47-2.64-6.75a60.24,60.24,0,0,0-3-6.57c.85-1.64,1.7-3.29,2.47-5s1.22-3.22,2.6-4.29c.48-.38.46-.76-.22-.8a3.68,3.68,0,0,0-2.33.62,9.16,9.16,0,0,0-2.7,3.6c-.78,1.72-1.59,3.42-2.45,5.12-.06.12-.13.24-.19.37a1,1,0,0,0-.54,1.06C58.7,15,58,16.27,57.26,17.53c-.25-4.66-.81-9.32-1-14,0-1.06-3.35-.4-3.3.89.21,5.78,1,11.56,1.08,17.34Z" transform="translate(0 0)"/>
    <path d="M85.57,15.58c-.18-.7-1.16-.71-1.92-.64,0-.29,0-.57,0-.85-.11-2.24-.14-4.53-.33-6.77C83.12,5.25,82,4.51,80,4.59a20.48,20.48,0,0,0-6.3,1.18,5.88,5.88,0,0,0-3.84,4.78c-.47,2.54.2,5.24.31,7.79.13,2.95.06,5.91.06,8.86,0,.49,3.29,0,3.29-.88,0-2.34,0-4.68,0-7,0-.69,0-1.38-.08-2.06,1.15-.5,3.1,0,4.25.12a12.45,12.45,0,0,0,2.73-.25c0,1.95.09,3.91.17,5.85,0,1,.41,3-.29,3.8-.37.44,1.25.29,1.31.28a3.36,3.36,0,0,0,1.94-.87c.8-.95.38-3.2.33-4.32-.06-1.61-.08-3.22-.12-4.83C84.69,16.89,85.75,16.3,85.57,15.58Zm-6.66-.16a24.78,24.78,0,0,0-5.65,0c-.09-1.05-.19-2.1-.26-3.16-.13-2,.1-4.7,1.93-5.89a5.9,5.9,0,0,1,2-.37,3.09,3.09,0,0,1,2.39.16c1,.68.76,3.08.76,4.1,0,1.69.18,3.37.26,5.06A10.93,10.93,0,0,1,78.91,15.42Z" transform="translate(0 0)"/>
    <path d="M18.7,4.11a.55.55,0,0,0,.12.49v.12a2.53,2.53,0,0,1,0,.28.86.86,0,0,0,.37.45,1.83,1.83,0,0,0,1.11.19,2.65,2.65,0,0,0,1.24-.44L21.77,5c.43-.28.81-.7.61-1.15A6.36,6.36,0,0,1,22,1c0-.81-.81-1-1.5-1S18.7.5,18.7,1.29a13.26,13.26,0,0,0,.09,2.52A1.49,1.49,0,0,0,18.7,4.11Z" transform="translate(0 0)"/>
    <path d="M80.28,33.29a19.49,19.49,0,0,0-4.85-.79c-1.61-.17-3.25-.41-4.89-.56-1.63,0-3.31,0-5,.13l-4.88.27c-6.49.28-13,.25-19.51.1S28.13,32,21.55,32c-3.29,0-6.57.1-9.87.25-1.63.28-3.24.5-4.9.91A31,31,0,0,1,2,34.2a23.76,23.76,0,0,0,5,.3c1.58,0,3.24.14,4.87.23,3.23-.17,6.49-.25,9.73-.26,6.49,0,13,.33,19.57.45s13.11.19,19.68-.11l4.91-.27c1.6-.07,3.2-.12,4.83-.06,1.62-.15,3.25-.33,4.91-.54a23.12,23.12,0,0,1,4.86-.5h.07v0a3.45,3.45,0,0,0,0-.48C80.31,33,80.31,33.17,80.28,33.29Z" transform="translate(0 0)"/>
  </g>
</svg>
