<svg xmlns="http://www.w3.org/2000/svg" width="101" height="77" viewBox="0 0 457.62 349.5">
  <defs>
    <style>
      .a {
        fill: #63d1bb;
        stroke: #fff;
        stroke-miterlimit: 10;
        stroke-width: 25px;
      }

      .b {
        fill: #fff;
      }
    </style>
  </defs>
  <path class="a" d="M509.53,328.75s-4.18-31.86-17.2-45.81c-16.51-18.37-34.88-18.49-43.37-19.53-60.58-4.66-151.38-4.66-151.38-4.66h-.23s-90.81,0-151.38,4.66c-8.49,1-26.86,1.16-43.37,19.53C89.7,297,85.4,328.75,85.4,328.75s-4.07,37.32-4.07,74.64v35A747.38,747.38,0,0,0,85.63,513s4.18,31.85,17.21,45.81c16.51,18.37,38,17.78,47.66,19.76,34.65,3.49,147.08,4.65,147.08,4.65s90.92-.11,151.5-4.76c8.48-1,26.85-1.17,43.36-19.54,12.91-14,17.21-45.81,17.21-45.81A747.32,747.32,0,0,0,514,438.5v-35C513.83,366.07,509.53,328.75,509.53,328.75Z" transform="translate(-68.83 -246.25)"/>
  <polygon class="b" points="174.69 93.54 174.69 255.84 309.91 174.69 174.69 93.54"/>
</svg>
