<svg xmlns="http://www.w3.org/2000/svg" width="511.7" height="402" viewBox="0 0 511.7 402">
  <path d="M49.1,123.9c6.5,4.6,26,18.1,58.5,40.7s57.5,39.9,74.8,52.1c1.9,1.3,5.9,4.2,12.1,8.7s11.3,8.1,15.4,10.9,9,5.9,14.8,9.3a88.1,88.1,0,0,0,16.4,7.7,45.68,45.68,0,0,0,14.3,2.6h.6a46.18,46.18,0,0,0,14.3-2.6,88.1,88.1,0,0,0,16.4-7.7c5.8-3.4,10.8-6.5,14.8-9.3s9.2-6.4,15.4-10.9,10.2-7.4,12.1-8.7q26.25-18.3,133.6-92.8a135,135,0,0,0,34.8-35.1c9.3-13.7,14-28.1,14-43.1a43.68,43.68,0,0,0-13.6-32.3C488.8,4.5,478.1,0,465.7,0H45.7C31,0,19.8,4.9,11.9,14.8S0,37.1,0,52C0,64,5.2,77,15.7,91S37.3,115.9,49.1,123.9Z"/>
  <path d="M483.1,154.5Q389.5,218,340.9,253c-10.8,8-19.6,14.2-26.4,18.7s-15.7,9-27,13.7-21.7,7-31.4,7h-.6c-9.7,0-20.2-2.3-31.4-7s-20.2-9.2-27-13.7S181.5,261,170.7,253q-38.55-28.2-141.9-98.5A153.56,153.56,0,0,1,0,129.6V356.3a44.26,44.26,0,0,0,13.4,32.3A44.1,44.1,0,0,0,45.7,402H466a45.75,45.75,0,0,0,45.7-45.7V129.6A160.35,160.35,0,0,1,483.1,154.5Z"/>
</svg>
