<?xml version="1.0" encoding="iso-8859-1"?>
<!-- Generator: Adobe Illustrator 23.1.0, SVG Export Plug-In . SVG Version: 6.00 Build 0)  -->
<svg version="1.1" id="&#x421;&#x43B;&#x43E;&#x439;_1"
	 xmlns="http://www.w3.org/2000/svg" xmlns:xlink="http://www.w3.org/1999/xlink" x="0px" y="0px" viewBox="0 0 475.4 170"
	 style="enable-background:new 0 0 475.4 170;" xml:space="preserve">
<style type="text/css">
	.st0{fill:url(#SVGID_1_);}
	.st1{clip-path:url(#SVGID_3_);}
	.st2{fill:none;stroke:#000000;}
	.st3{stroke:#000000;}
</style>
<g id="&#x421;&#x43B;&#x43E;&#x439;_x0020_1">
	<g id="_612943824">
		
			<radialGradient id="SVGID_1_" cx="8883.7256" cy="-21321.668" r="1487.5396" gradientTransform="matrix(-2.413674e-02 3.335666e-02 -3.315125e-02 -2.431896e-02 -399.6466 -732.0352)" gradientUnits="userSpaceOnUse">
			<stop  offset="0" style="stop-color:#FFE93D"/>
			<stop  offset="1" style="stop-color:#FC1F02"/>
		</radialGradient>
		<polygon class="st0" points="84.3,0 68.6,7.5 52,6.4 40.3,19.4 24.7,24.7 18.8,41.2 6.4,52.2 7.3,69.5 0,84.4 7.4,100.3 
			6.4,116.8 19.4,128.5 24.7,144.3 41.1,150.1 52,162.6 69.4,161.6 84.3,169 100,161.5 116.6,162.6 128.3,149.6 144,144.3 
			149.8,127.7 162.3,116.8 161.4,99.4 168.7,84.4 161.3,68.7 162.3,52.2 149.3,40.5 144,24.7 127.6,18.9 116.6,6.4 99.2,7.4 		"/>
		<g>
			<g>
				<g>
					<defs>
						<polygon id="SVGID_2_" points="84.3,0 68.6,7.5 52,6.4 40.3,19.4 24.7,24.7 18.8,41.2 6.4,52.2 7.3,69.5 0,84.4 7.4,100.3 
							6.4,116.8 19.4,128.5 24.7,144.3 41.1,150.1 52,162.6 69.4,161.6 84.3,169 100,161.5 116.6,162.6 128.3,149.6 144,144.3 
							149.8,127.7 162.3,116.8 161.4,99.4 168.7,84.4 161.3,68.7 162.3,52.2 149.3,40.5 144,24.7 127.6,18.9 116.6,6.4 99.2,7.4 
													"/>
					</defs>
					<clipPath id="SVGID_3_">
						<use xlink:href="#SVGID_2_"  style="overflow:visible;"/>
					</clipPath>
					<g class="st1">
						<g>
							<path id="_x31_" d="M44.4,118.9c0,0,5.6-17.2,7.2-23.1c1.6-5.9,3.4-11.3,3.4-11.3s-13.3-0.5-18.6-10.9
								c-5.4-10.4-1.3-23.1-1.3-23.1s-0.5-1.1-1-2.7L21.2,63.6l12.7-16.5c-0.5-1.5-0.9-3.5-1.1-5.6l-8.7,3.4l8.7-3.6
								c-0.3-4.4,0.9-9.1,6.2-11.7c3.7-1.7,7.1-2.3,10.1-2.3l7.5-9.8l1.4,0.7l-7.4,9.1c5.2,0.4,8.7,2.5,8.7,2.5s0.4-0.1,1.1-0.1
								l16.3-6.7c0,0,0.5,1.4,0.6,1.4l-14.1,5.4c4.5,0.2,11.9,1.2,16.6,4.8c7.2,5.6,9,10.4,9.9,12.1c0.9,1.7,4,5.2,3.8,10.8
								c-0.2,5.1-1.3,7.4-1.3,10.3c0.7-0.3,1.3-0.7,1.6-0.9c0.7-0.6,1.5-1.2,1.5-1.2s-1,1.5-1.7,1.9c-0.7,0.4,2.1-1.1,2.7-1.7
								c0.5-0.5,0.9-1,0.9-1s-0.7,1.7-1.8,2.2c-1.1,0.6,2.9-1.9,2.9-1.9s-2.1,2.1-4.4,2.8c-0.6,0.2-1.1,0.3-1.6,0.4
								c0,0.1,0,0.2,0,0.3c0.3,3.6,2.5,7.7,2.8,8.8c0.3,1.1-2.9,1.5-3.6,1.7c-0.7,0.2-1.3,1.3-1.1,2.5c0.2,1.2,0.4,2.6-1.1,2.6
								s-1.7,0-1.7,0s1.7,0.7,1.3,1.9c-0.3,1.3-0.7,0.7-1.4,1.5c-0.6,0.8-0.9,3.8-1.3,5c-0.4,1.2-2.7,1.9-6.6-0.8
								c-3.9-2.7-5.9-4.6-5.9-4.6S68.5,94.3,68,101c-0.5,6.7,0.7,13.7,0.7,13.7s0.2,1,0.4,3.1c1.9,3.2,4.2,7.3,6,10
								c2.2,3.4,10.3,16.7,13.8,27.7c2.7-7.4,4.8-15.5,4.8-15.5l0.7,0.6l4-11.1c0,0-1.3-3.5-0.2-7.8c1-4.4,4-14.8,5.4-16.2
								c0,0,0.3,1.3,0.1,3.2s-1.6,6.5-1.6,6.5s-0.9,2.5,1.3,4.3c2.3,1.7,5.1-0.3,7-1.1c1.9-0.9,9.6-6,9.6-6s3.1-5.8,4.3-7.4
								c1.2-1.7,3.8-3.6,3.8-3.6s-0.5,1-1.2,2.1s-2.8,5-2.8,5s2.5-1.7,4.2-3.2c1.7-1.5,3.5-1.8,3.5-1.8s0.1,0.1-0.9,0.7
								c-1,0.6-4.4,4-4.4,4s2.3-1.5,3-1.9c0.7-0.3,2.5-1,2.5-1s-5.7,5-11,9.3c-5.3,4.4-11.7,10.3-11.7,10.3s-1,2-2.6,4.9
								c-1.5,2.8-6,18.8-6,18.8c3.6,21.2,16.1,30.7,14,63.3l-52-5.8c-4.8-0.1-9.8-0.4-12.9-1.5l0,0l0,0c-2.1-0.7-3.4-1.8-3.2-3.4
								c0.7-7.2-4.9-25.7-6.3-44.4C38.7,138.7,44.4,118.9,44.4,118.9z M125.2,96.6c-0.9,0.9-3.2,1.9-5.1,1.5
								c-0.9,0.1-1.7-0.1-2.5-0.7c-3.1-2.1-1.6-4.6,0.2-4.6c0.9,0,1.6,0.3,2.1,0.7c0.2,0.1,0.4,0.2,0.6,0.4c-0.4-0.7-1-2.5-0.1-4.8
								c1.3-3.1,3.7-5.2,6.2-3.1c0.9,0.7,1,2,0.9,3.4c0.3,0.2,0.5,0.5,0.7,0.7C129.6,92.4,125.2,96.6,125.2,96.6z"/>
						</g>
					</g>
				</g>
			</g>
		</g>
		<polygon class="st2" points="84.3,0 68.6,7.5 52,6.4 40.3,19.4 24.7,24.7 18.8,41.2 6.4,52.2 7.3,69.5 0,84.4 7.4,100.3 
			6.4,116.8 19.4,128.5 24.7,144.3 41.1,150.1 52,162.6 69.4,161.6 84.3,169 100,161.5 116.6,162.6 128.3,149.6 144,144.3 
			149.8,127.7 162.3,116.8 161.4,99.4 168.7,84.4 161.3,68.7 162.3,52.2 149.3,40.5 144,24.7 127.6,18.9 116.6,6.4 99.2,7.4 		"/>
		<line class="st2" x1="116.6" y1="6.4" x2="52" y2="162.6"/>
		<line class="st2" x1="84.3" y1="0" x2="84.3" y2="169"/>
		<line class="st2" x1="52" y1="6.4" x2="116.6" y2="162.6"/>
		<line class="st2" x1="24.7" y1="24.7" x2="144" y2="144.3"/>
		<line class="st2" x1="6.4" y1="52.2" x2="162.3" y2="116.8"/>
		<line class="st2" x1="0" y1="84.4" x2="168.7" y2="84.4"/>
		<line class="st2" x1="6.4" y1="116.8" x2="162.3" y2="52.2"/>
		<line class="st2" x1="24.7" y1="144.3" x2="144" y2="24.7"/>
		<path class="st3" d="M77.8,147.5c2-4.2,5.5-6.6,3.4-11.6c-2.1-5-3.3-10.7-3.5-13.2s-5-1.1-5.4,2.1c-0.4,3.2-1.3,5.9-1.8,7.4
			c-0.5,1.5-1.4,7,0,9.2C72,143.6,77.8,147.5,77.8,147.5z"/>
		<polygon class="st3" points="80.2,92 79.9,93.2 71.2,131.2 73.7,131.6 81.7,93.6 		"/>
		<path d="M77.5,124.5c0.4-0.1,1.5-0.5,1.9,1.1c0.5,1.7-1.2,2.7-1.2,2.7s1.2-0.6,1.5-0.5c0.3,0.1,1.5,1.3,1.1,2.7
			c-0.5,1.4-1.9,1.5-1.5,1.3c0.4-0.1-4.2-1-4.2-1L77.5,124.5z"/>
	</g>
	<path d="M202.6,77.6c0-5.7,1.1-11.5,3.4-17.6c2.3-6.1,5.7-12.6,10.2-19.4h11.9l8.5,41.8l11.5-41.8h11l7.7,52.8h-11l-6.1-40.1
		l-11.2,40.1h-10.4l-9.8-46.8c-3.1,7.7-4.6,16.5-4.6,26.3c0,6.6,1.1,13.4,3.4,20.5h-11.8C203.4,88.1,202.6,82.8,202.6,77.6z"/>
	<path id="_x31__1_" d="M271.1,72.7c0-4.6,1.9-9.6,5.7-15.1h10.6c-2.2,4.1-3.8,7.6-4.6,10.4c-0.9,2.9-1.3,5.8-1.3,8.7
		c0,4.9,0.6,9.1,1.8,12.6l17-31.9h11.2v35.8h-10.2v-29l-15.8,29h-5.2c0-1-0.3-2.1-0.9-3.3c-0.6-1.1-1.4-2.2-2.3-3.3
		c-0.9-1.1-1.8-2.4-2.7-3.6c-0.9-1.3-1.7-2.8-2.3-4.6C271.4,76.6,271.1,74.7,271.1,72.7z"/>
	<path id="_x32_" d="M318.2,93.4V57.6h10.2v16.2h4.5c0.3-2.2,1-4.3,2.1-6.3c1-2,2.4-3.8,4-5.4c1.7-1.6,3.6-2.9,5.9-3.8
		c2.3-1,4.8-1.4,7.4-1.4c3,0,5.8,0.6,8.3,1.8c2.5,1.2,4.6,2.8,6.2,4.8c1.6,2,2.9,4.1,3.7,6.5c0.9,2.4,1.4,4.8,1.4,7.3
		c0,2.6-0.5,4.9-1.3,6.9c-0.8,2.1-1.8,3.7-3.2,4.9c-1.3,1.2-2.8,2.2-4.5,3c-1.8,0.8-3.5,1.4-5.3,1.7c-1.7,0.3-3.5,0.5-5.4,0.5
		c-1.8,0-3.6-0.1-5.2-0.5c-1.7-0.2-3.4-0.8-5.2-1.5c-1.8-0.8-3.3-1.8-4.6-2.9c-1.3-1.2-2.4-2.8-3.2-4.6c-0.9-2-1.3-4.1-1.4-6.6h-4.2
		v15.3h-10.2L318.2,93.4L318.2,93.4z M343.3,78c0,4.1,0.8,7.2,2.4,9.3c1.6,2.1,3.8,3,6.5,3c2.8,0,4.9-1,6.5-3s2.4-5.2,2.4-9.3
		c0-2.1-0.1-4.1-0.4-6.1c-0.3-1.9-0.7-3.7-1.4-5.5c-0.6-1.8-1.5-3.2-2.8-4.2c-1.3-1-2.7-1.6-4.4-1.6s-3.1,0.6-4.4,1.6
		c-1.2,1-2.1,2.5-2.8,4.2c-0.6,1.8-1.1,3.6-1.4,5.5C343.4,73.9,343.3,75.9,343.3,78z"/>
	<polygon id="_x33_" points="377.7,93.4 377.7,57.6 387.9,57.6 387.9,89.6 398.1,89.6 398.1,57.6 408.3,57.6 408.3,89.6 418.6,89.6 
		418.6,57.6 428.8,57.6 428.8,93.4 	"/>
	<path id="_x34_" d="M434.6,72.7c0-4.6,1.9-9.6,5.7-15.1h10.6c-2.2,4.1-3.8,7.6-4.6,10.4c-0.8,2.9-1.3,5.8-1.3,8.7
		c0,4.9,0.6,9.1,1.9,12.6l16.9-31.8H475v35.8h-10.2v-29l-15.8,29h-5.2c0-1-0.3-2.1-0.9-3.3c-0.6-1.1-1.4-2.2-2.3-3.3
		c-0.9-1.1-1.8-2.4-2.7-3.6c-0.9-1.3-1.7-2.8-2.3-4.6C434.9,76.6,434.6,74.7,434.6,72.7z"/>
	<path d="M213.8,130.1l2.4,0.3c-0.3,1.7-1,3-2.1,3.9c-1.1,0.9-2.4,1.4-4,1.4c-2,0-3.6-0.7-4.8-2c-1.2-1.3-1.8-3.2-1.8-5.6
		c0-1.6,0.2-3,0.7-4.1c0.5-1.1,1.3-2.1,2.4-2.6c1-0.6,2.2-0.9,3.4-0.9c1.5,0,2.9,0.4,3.8,1.1c1,0.8,1.7,2,2,3.4l-2.4,0.3
		c-0.2-1-0.6-1.7-1.2-2.2c-0.6-0.5-1.3-0.7-2.1-0.7c-1.3,0-2.3,0.5-3,1.3c-0.8,0.9-1.1,2.3-1.1,4.2c0,2,0.3,3.4,1.1,4.2
		c0.7,0.9,1.7,1.3,2.9,1.3c1,0,1.8-0.3,2.4-0.9C213.2,132.3,213.6,131.3,213.8,130.1z"/>
	<path id="_x31__2_" d="M218.1,141.1l-0.3-2.3c0.6,0.1,1,0.2,1.4,0.2c0.6,0,1-0.1,1.3-0.3c0.3-0.2,0.6-0.5,0.8-0.7
		c0.2-0.3,0.4-0.9,0.7-1.8c0.1-0.2,0.1-0.3,0.2-0.6l-5.5-14.6h2.6l3,8.4c0.3,1.1,0.7,2.2,1,3.4c0.3-1.1,0.6-2.2,1-3.3l3.1-8.5h2.4
		l-5.1,14.8c-0.6,1.5-1.1,2.6-1.4,3.3c-0.5,0.8-1,1.4-1.5,1.8c-0.6,0.3-1.2,0.6-2,0.6C219.3,141.4,218.7,141.3,218.1,141.1z"/>
	<polygon id="_x32__1_" points="232.3,120.9 234.8,120.9 234.8,133.4 240.4,133.4 240.4,120.9 242.8,120.9 242.8,133.4 248.5,133.4 
		248.5,120.9 250.9,120.9 250.9,135.4 232.3,135.4 	"/>
	<polygon id="_x33__1_" points="254.7,120.9 257.1,120.9 257.1,132 264,120.9 266.6,120.9 266.6,135.4 264.2,135.4 264.2,124.4 
		257.4,135.4 254.7,135.4 	"/>
	<polygon id="_x34__1_" points="278.1,120.9 280.5,120.9 280.5,132 287.4,120.9 290.1,120.9 290.1,135.4 287.6,135.4 287.6,124.4 
		280.8,135.4 278.1,135.4 	"/>
	<path id="_x35__1_" d="M301.5,141.1v-20.1h2.2v1.9c0.5-0.7,1.1-1.3,1.8-1.7c0.6-0.3,1.4-0.5,2.4-0.5c1.3,0,2.4,0.3,3.3,0.9
		c1,0.6,1.7,1.5,2.1,2.7c0.5,1.1,0.7,2.5,0.7,3.8c0,1.5-0.3,2.8-0.8,4c-0.5,1.1-1.3,2.1-2.3,2.7c-1,0.6-2.1,1-3.2,1
		c-0.8,0-1.5-0.2-2.2-0.5c-0.6-0.3-1.1-0.8-1.5-1.3v7.1L301.5,141.1L301.5,141.1z M303.8,128.2c0,1.9,0.3,3.3,1.1,4.1
		c0.7,0.9,1.7,1.3,2.8,1.3s2-0.5,2.8-1.4c0.7-0.9,1.1-2.4,1.1-4.2c0-1.8-0.3-3.3-1.1-4.2c-0.7-0.9-1.7-1.4-2.7-1.4
		c-1,0-2,0.5-2.8,1.5S303.8,126.4,303.8,128.2z"/>
	<path id="_x36__1_" d="M316.2,128.2c0-2.7,0.7-4.7,2.2-6c1.3-1.1,2.8-1.6,4.5-1.6c2,0,3.7,0.6,4.9,2c1.3,1.3,1.9,3.1,1.9,5.4
		c0,1.9-0.3,3.3-0.9,4.4c-0.6,1-1.4,1.9-2.4,2.5c-1.1,0.6-2.2,0.9-3.6,0.9c-2,0-3.7-0.7-4.9-2C316.8,132.5,316.2,130.6,316.2,128.2z
		 M318.7,128.2c0,1.8,0.4,3.2,1.2,4.1c0.8,0.9,1.8,1.4,3,1.4c1.3,0,2.3-0.5,3.1-1.4c0.8-0.9,1.2-2.4,1.2-4.2s-0.4-3.2-1.2-4.1
		c-0.9-0.9-1.8-1.4-3.1-1.4c-1.2,0-2.2,0.5-3,1.4C319.1,124.9,318.7,126.3,318.7,128.2z"/>
	<path id="_x37__1_" d="M333.2,120.9h11.5v14.5h-2.5V123h-6.5v7.2c0,1.7-0.1,2.8-0.1,3.3c-0.1,0.5-0.5,1-0.9,1.4
		c-0.5,0.4-1.2,0.6-2.1,0.6c-0.6,0-1.3-0.1-2-0.1v-2.1h1.1c0.5,0,0.9-0.1,1.1-0.2c0.2-0.1,0.3-0.2,0.5-0.5c0.1-0.2,0.1-1,0.1-2.2
		v-9.5H333.2z"/>
	<path id="_x38__1_" d="M349.6,120.9h11.5v14.5h-2.5V123h-6.5v7.2c0,1.7-0.1,2.8-0.2,3.3c-0.1,0.5-0.4,1-0.9,1.4
		c-0.5,0.4-1.1,0.6-2.1,0.6c-0.6,0-1.2-0.1-2-0.1v-2.1h1.1c0.5,0,0.9-0.1,1.1-0.2c0.2-0.1,0.3-0.2,0.4-0.5c0.1-0.3,0.1-1,0.1-2.2
		V120.9z"/>
	<path id="_x39_" d="M378.6,120.9h2.5v14.5h-2.5V120.9z M364.9,120.9h2.5v5.7h3.1c2.1,0,3.6,0.4,4.7,1.2c1.1,0.7,1.7,1.8,1.7,3.2
		c0,1.3-0.5,2.3-1.4,3.2c-0.9,0.9-2.4,1.3-4.4,1.3H365v-14.6L364.9,120.9L364.9,120.9z M367.3,133.4h2.6c1.5,0,2.7-0.2,3.3-0.6
		c0.7-0.4,1-1,1-1.8c0-0.6-0.3-1.2-0.7-1.7c-0.5-0.5-1.6-0.7-3.3-0.7h-2.9V133.4z"/>
</g>
</svg>
