<?xml version="1.0" encoding="utf-8"?>
<!-- Generator: Adobe Illustrator 23.1.0, SVG Export Plug-In . SVG Version: 6.00 Build 0)  -->
<svg version="1.1" id="Слой_1" xmlns="http://www.w3.org/2000/svg" xmlns:xlink="http://www.w3.org/1999/xlink" x="0px" y="0px"
	 viewBox="0 0 46.3 46.3" style="enable-background:new 0 0 46.3 46.3;" xml:space="preserve">
<style type="text/css">
	.st0{fill:url(#SVGID_1_);}
	.st1{clip-path:url(#SVGID_3_);}
	.st2{fill:none;stroke:#000000;stroke-width:0.2874;stroke-miterlimit:1.1494;}
	.st3{stroke:#000000;stroke-width:0.2874;stroke-miterlimit:1.1494;}
</style>
<g id="Слой_x0020_1">
	<g id="_612943824">
		
			<radialGradient id="SVGID_1_" cx="18434.8809" cy="-28074.1309" r="1487.5396" gradientTransform="matrix(-6.582578e-03 9.079329e-03 -9.041017e-03 -6.619362e-03 -107.0103 -330.5075)" gradientUnits="userSpaceOnUse">
			<stop  offset="0" style="stop-color:#FFE93D"/>
			<stop  offset="1" style="stop-color:#FC1F02"/>
		</radialGradient>
		<polygon class="st0" points="23.2,0.2 18.9,2.2 14.3,1.9 11.2,5.4 6.9,6.9 5.3,11.4 1.9,14.4 2.2,19.1 0.2,23.1 2.2,27.5 1.9,32 
			5.5,35.1 6.9,39.4 11.4,41 14.3,44.4 19.1,44.1 23.2,46.2 27.4,44.1 32,44.4 35.1,40.9 39.4,39.4 41,34.9 44.4,32 44.2,27.2 
			46.2,23.1 44.1,18.9 44.4,14.4 40.9,11.2 39.4,6.9 34.9,5.3 32,1.9 27.2,2.2 		"/>
		<g>
			<g>
				<g>
					<defs>
						<polygon id="SVGID_2_" points="23.2,0.2 18.9,2.2 14.3,1.9 11.2,5.4 6.9,6.9 5.3,11.4 1.9,14.4 2.2,19.1 0.2,23.1 2.2,27.5 
							1.9,32 5.5,35.1 6.9,39.4 11.4,41 14.3,44.4 19.1,44.1 23.2,46.2 27.4,44.1 32,44.4 35.1,40.9 39.4,39.4 41,34.9 44.4,32 
							44.2,27.2 46.2,23.1 44.1,18.9 44.4,14.4 40.9,11.2 39.4,6.9 34.9,5.3 32,1.9 27.2,2.2 						"/>
					</defs>
					<clipPath id="SVGID_3_">
						<use xlink:href="#SVGID_2_"  style="overflow:visible;"/>
					</clipPath>
					<g class="st1">
						<g>
							<path id="_x31_" d="M12.3,32.5c0,0,1.5-4.7,2-6.3c0.4-1.6,0.9-3.1,0.9-3.1s-3.6-0.1-5.1-3c-1.5-2.8-0.4-6.3-0.4-6.3
								s-0.1-0.3-0.3-0.7l-3.5,4.3L9.4,13c-0.1-0.4-0.2-1-0.3-1.5l-2.4,0.9l2.4-1C9,10.2,9.4,8.9,10.8,8.2c1-0.5,1.9-0.6,2.8-0.6
								l2-2.7L16,5.1l-2,2.5c1.4,0.1,2.4,0.7,2.4,0.7s0.1,0,0.3,0l4.4-1.8c0,0,0.1,0.4,0.2,0.4l-3.8,1.5c1.2,0.1,3.2,0.3,4.5,1.3
								c2,1.5,2.5,2.8,2.7,3.3s1.1,1.4,1,2.9c-0.1,1.4-0.4,2-0.4,2.8c0.2-0.1,0.4-0.2,0.4-0.2c0.2-0.2,0.4-0.3,0.4-0.3
								s-0.3,0.4-0.5,0.5c-0.2,0.1,0.6-0.3,0.7-0.5c0.1-0.1,0.2-0.3,0.2-0.3s-0.2,0.5-0.5,0.6c-0.3,0.2,0.8-0.5,0.8-0.5
								s-0.6,0.6-1.2,0.8c-0.2,0.1-0.3,0.1-0.4,0.1c0,0,0,0.1,0,0.1c0.1,1,0.7,2.1,0.8,2.4s-0.8,0.4-1,0.5s-0.4,0.4-0.3,0.7
								c0.1,0.3,0.1,0.7-0.3,0.7s-0.5,0-0.5,0s0.5,0.2,0.4,0.5C24.3,24,24.2,23.8,24,24c-0.2,0.2-0.2,1-0.4,1.4
								c-0.1,0.3-0.7,0.5-1.8-0.2s-1.6-1.3-1.6-1.3s-1.4,1.9-1.6,3.7c-0.1,1.8,0.2,3.7,0.2,3.7s0.1,0.3,0.1,0.8
								c0.5,0.9,1.1,2,1.6,2.7c0.6,0.9,2.8,4.6,3.8,7.6c0.7-2,1.3-4.2,1.3-4.2l0.2,0.2l1.1-3c0,0-0.4-1-0.1-2.1
								c0.3-1.2,1.1-4,1.5-4.4c0,0,0.1,0.4,0,0.9c-0.1,0.5-0.4,1.8-0.4,1.8s-0.2,0.7,0.4,1.2c0.6,0.5,1.4-0.1,1.9-0.3
								c0.5-0.2,2.6-1.6,2.6-1.6s0.8-1.6,1.2-2c0.3-0.5,1-1,1-1S35,28,34.8,28.3c-0.2,0.3-0.8,1.4-0.8,1.4s0.7-0.5,1.1-0.9
								c0.5-0.4,1-0.5,1-0.5s0,0-0.2,0.2c-0.3,0.2-1.2,1.1-1.2,1.1s0.6-0.4,0.8-0.5c0.2-0.1,0.7-0.3,0.7-0.3s-1.6,1.4-3,2.5
								c-1.4,1.2-3.2,2.8-3.2,2.8s-0.3,0.5-0.7,1.3c-0.4,0.8-1.6,5.1-1.6,5.1c1,5.8,4.4,8.3,3.8,17.2l-14.2-1.6
								c-1.3,0-2.7-0.1-3.5-0.4l0,0l0,0c-0.6-0.2-0.9-0.5-0.9-0.9c0.2-2-1.3-7-1.7-12.1C10.7,37.9,12.3,32.5,12.3,32.5z M34.3,26.4
								c-0.2,0.2-0.9,0.5-1.4,0.4c-0.2,0-0.5,0-0.7-0.2c-0.8-0.6-0.4-1.3,0.1-1.3c0.2,0,0.4,0.1,0.6,0.2c0.1,0,0.1,0.1,0.2,0.1
								c-0.1-0.2-0.3-0.7,0-1.3c0.4-0.8,1-1.4,1.7-0.8c0.2,0.2,0.3,0.5,0.2,0.9c0.1,0.1,0.1,0.1,0.2,0.2
								C35.5,25.3,34.3,26.4,34.3,26.4z"/>
						</g>
					</g>
				</g>
			</g>
		</g>
		<polygon class="st2" points="23.2,0.2 18.9,2.2 14.3,1.9 11.2,5.4 6.9,6.9 5.3,11.4 1.9,14.4 2.2,19.1 0.2,23.1 2.2,27.5 1.9,32 
			5.5,35.1 6.9,39.4 11.4,41 14.3,44.4 19.1,44.1 23.2,46.2 27.4,44.1 32,44.4 35.1,40.9 39.4,39.4 41,34.9 44.4,32 44.2,27.2 
			46.2,23.1 44.1,18.9 44.4,14.4 40.9,11.2 39.4,6.9 34.9,5.3 32,1.9 27.2,2.2 		"/>
		<line class="st2" x1="32" y1="1.9" x2="14.3" y2="44.4"/>
		<line class="st2" x1="23.2" y1="0.2" x2="23.2" y2="46.2"/>
		<line class="st2" x1="14.3" y1="1.9" x2="32" y2="44.4"/>
		<line class="st2" x1="6.9" y1="6.9" x2="39.4" y2="39.4"/>
		<line class="st2" x1="1.9" y1="14.4" x2="44.4" y2="32"/>
		<line class="st2" x1="0.2" y1="23.1" x2="46.2" y2="23.1"/>
		<line class="st2" x1="1.9" y1="32" x2="44.4" y2="14.4"/>
		<line class="st2" x1="6.9" y1="39.4" x2="39.4" y2="6.9"/>
		<path class="st3" d="M21.4,40.3c0.5-1.1,1.5-1.8,0.9-3.2c-0.6-1.4-0.9-2.9-1-3.6c-0.1-0.7-1.4-0.3-1.5,0.6s-0.4,1.6-0.5,2
			c-0.1,0.4-0.4,1.9,0,2.5C19.8,39.2,21.4,40.3,21.4,40.3z"/>
		<polygon class="st3" points="22,25.2 22,25.5 19.6,35.9 20.3,36 22.4,25.6 		"/>
		<path d="M21.3,34.1c0.1,0,0.4-0.1,0.5,0.3c0.1,0.5-0.3,0.7-0.3,0.7s0.3-0.2,0.4-0.1c0.1,0,0.4,0.4,0.3,0.7
			c-0.1,0.4-0.5,0.4-0.4,0.4c0.1,0-1.1-0.3-1.1-0.3L21.3,34.1z"/>
	</g>
</g>
</svg>
