<?xml version="1.0" encoding="iso-8859-1"?>
<!-- Generator: Adobe Illustrator 19.0.0, SVG Export Plug-In . SVG Version: 6.00 Build 0)  -->
<svg version="1.1" id="Capa_1" xmlns="http://www.w3.org/2000/svg" xmlns:xlink="http://www.w3.org/1999/xlink" x="0px" y="0px"
	 viewBox="0 0 120 120" style="enable-background:new 0 0 120 120;" xml:space="preserve" width="75px" height="75px">
<g id="_x30_605-rice-chopsticks">
	<g>
		<path style="fill-rule:evenodd;clip-rule:evenodd;" d="M12.402,7.74c0.756-0.067,0.794,0.583,1.548,0.516
			c0.535,0.153,1.695-0.318,1.806,0.258c0.896-0.207,0.992,0.384,1.807,0.258c0.459,0.312,1.5,0.047,1.805,0.516
			c1.421,0.041,2.565,0.359,3.869,0.517c0.686,0.002,1.474-0.098,1.807,0.258c0.616,0.157,1.872-0.324,2.064,0.259
			c5.367,0.478,10.518,1.176,15.478,2.063c5.178,0.669,10.211,1.483,15.221,2.321c2.716,0.206,4.921,0.926,7.739,1.031
			c0.111,0.577,1.271,0.106,1.806,0.258c0.035,0.739,1.771-0.223,1.807,0.517c1.661,0.112,2.278,0.255,3.869,0
			c0.162,0.613,1.588-0.04,1.805,0.516c1.063-0.202,1.325,0.396,2.322,0.259c0.849,0.011,1.285,0.435,2.322,0.258
			c0.114,0.745,1.949-0.23,2.064,0.516c1.689-0.056,2.916,0.352,4.385,0.516c0.69,0.171,1.612,0.108,2.064,0.517
			c0.837,0.022,1.587,0.133,2.063,0.516c2.906,0.448,5.447,1.261,7.997,2.064c2.686,0.43,5.6,1.941,8.513,1.291
			c-0.025-1.18-1.515-0.893-2.063-1.549c-0.942-0.262-1.768-0.64-2.58-1.032c-2.092-0.315-3.501-1.315-5.676-1.547
			c-0.769-0.445-1.707-0.744-2.579-1.033c-0.877-0.288-1.855-0.635-2.837-0.774c-1.543-0.951-3.683-1.306-5.676-1.806
			c-1.569-0.838-3.78-1.036-5.676-1.548c-1.918-0.575-4.091-0.897-5.933-1.548c-4.173-0.729-7.872-1.932-12.125-2.58
			c-7.83-1.887-15.871-3.562-24.25-4.9c-0.656-0.547-2.11-0.297-2.837-0.773c-1.216,0.011-1.955-0.454-3.095-0.518
			c-2.027-0.467-4.217-0.769-6.191-1.289C20.841,1.365,16.928,0.377,12.402,0c-0.304,0.125-0.585,0.275-0.774,0.517
			c-0.636,0.997-1.435,1.832-1.29,3.611C10.723,5.637,11.598,6.652,12.402,7.74z M14.982,3.871
			c5.696,1.01,11.276,2.138,16.768,3.352c-0.451,0.764-1.374-0.149-2.063,0c-1.062,0.202-1.324-0.395-2.322-0.258
			c-1.425-0.208-3.092-0.175-4.385-0.517h-2.321c-0.789,0.188-0.759-0.444-1.548-0.257h-3.869c-0.416-0.617-0.85-1.216-0.775-2.321
			C14.696,3.711,14.928,3.559,14.982,3.871z M33.299,29.925c8.247,0.354,16.301,0.899,24.766,1.032
			c7.984,0.551,17.239,0.241,25.281,0c3.659,0.642,8.742-0.142,12.383,0.517c4.184-0.457,8.856,1.14,11.867-0.517
			c-0.29-1.429-1.748-1.691-3.095-2.063c-1.5-0.22-2.751-0.689-4.644-0.516c-0.274-0.586-1.622-0.098-2.322-0.259
			c-1.037,0.178-1.473-0.246-2.322-0.258c-1.666-0.14-3.91,0.299-5.159-0.257c-7.237,0.185-13.819-0.284-20.895-0.259
			c-9.019-1.128-18.534-1.761-27.087-3.353c-8.447-1.7-17.866-2.428-27.861-2.58c-1.412,0.738-4.048,0.252-5.417,1.031
			c-0.74,1.428-1.297,4.85-0.258,6.45c3.823,0.477,8.303,0.296,12.125,0.774C24.959,29.666,29.346,29.578,33.299,29.925z
			 M10.597,23.992c0.55-0.121,0.491,0.368,0.516,0.773c0.214,0.645,0.707,1.014,0.774,1.806
			C10.325,26.844,11.025,24.854,10.597,23.992z M12.402,23.992h0.517c1.194,0.096,1.134,1.446,1.547,2.322
			C12.87,26.447,12.56,25.297,12.402,23.992z M16.014,26.056c-0.266-0.595-0.889-0.832-0.773-1.807
			c4.651,0.509,9.687,0.634,14.188,1.292c-0.191,0.581-1.446,0.101-2.064,0.257h-6.191C19.765,26.194,17.79,26.025,16.014,26.056z
			 M107.853,52.111c-1.549-0.681-2.988-0.339-4.902-0.258c-0.61-0.421-0.549-1.515-1.031-2.064
			c-0.692-0.426-1.143-1.094-1.806-1.548c-0.724-0.137-1.342-0.378-2.064-0.516c-1.772-0.052-2.972,0.469-4.128,1.032
			c-0.266-2.142-1.977-2.838-4.127-3.096c-0.485-2.353-1.801-3.875-3.353-5.159c-0.386-0.044-0.953,0.091-1.033-0.259
			c-1.189,0.014-2.521-0.114-3.353,0.259c-1.35-0.061-1.679,0.901-3.097,0.773c-2.339-1.099-3.825-3.054-6.964-3.353
			c-1.074,0.302-2.212,0.54-3.096,1.032c-1.116-1.073-2.15-1.671-3.354-1.291c-1.451,0.459-2.707,1.648-3.612,2.58
			c-0.572-0.804-1.632-1.118-2.837-1.289c-3.633-0.279-5.415,1.292-7.998,2.064c-1.155,0.588-1.452,1.942-2.579,2.321
			c-1.175-1.146-3.971-0.674-6.192-0.773c-0.233,0.54-1.455,0.092-1.547,0.773c-0.914-0.139-0.634,0.914-1.547,0.774h-2.838
			c-0.96,0.504-2.025,0.899-3.096,1.291c-0.217,0.813-1.33,0.733-1.548,1.548c-0.909,0.208-0.661,1.575-1.805,1.548
			c-1.358-0.154-2.217,0.19-3.354,0.258c-0.912,0.463-1.76,0.99-2.837,1.289c-0.106,0.325-0.333,0.527-0.774,0.517
			c-1.004,1.06-1.88,2.247-2.837,3.354c-1.442,0.277-2.421,1.02-3.612,1.548c-0.586,0.703-1.142,1.438-1.805,2.065
			c-0.29,1.602-0.513,3.271-0.774,4.9v3.871c0.372,5.389,1.628,9.894,2.837,14.445c1.106,1.819,1.693,4.154,2.58,6.191
			c0.885,2.039,1.953,3.896,2.837,5.934c0.883,0.493,0.884,1.867,1.807,2.321c0.322,1.14,1.251,1.672,1.805,2.58
			c1.236,1.688,2.783,3.065,4.128,4.644c1.067,0.395,1.426,1.497,2.58,1.806c0.421,1.04,1.763,1.16,2.322,2.064
			c1.13,0.332,1.812,1.113,2.837,1.549c0.913,0.549,2.069,0.854,2.837,1.548c0.947,2.236,2.316,4.047,2.063,7.481
			c1.568,1.872,4.449,2.431,7.481,2.838c5.188-0.047,10.733,0.698,15.737,0c8.666,0.153,17.029,0.005,20.638-4.902
			c0.081-1.402-0.712-1.359-0.258-2.58c7.198-3.358,13.062-9.285,17.284-16.252c4.846-7.996,8.211-18.403,7.997-30.957
			C112.739,60.067,112.042,53.245,107.853,52.111z M49.551,113.251c-0.757-0.447-1.198-1.21-1.29-2.321h1.29V113.251z M53.42,113.51
			c-0.596-0.265-0.533-1.187-0.515-2.065C53.922,111.288,53.208,112.861,53.42,113.51z M56.774,114.54
			c-0.406-0.658-0.406-2.693,0-3.352h0.773c0.461,0.829,0.151,2.429,0.517,3.352H56.774z M61.675,114.283
			c-0.443-0.847-0.812-1.767-0.774-3.096c1.609,0.146,2.521-0.403,3.871-0.517c-0.059,1.348,0.004,2.576,0.258,3.612H61.675z
			 M100.629,91.323c-1.929,3.229-3.865,6.453-6.449,9.029c-2.317,2.843-5.5,4.817-8.255,7.223c-0.788,0.187-0.94-0.263-1.547-0.258
			c-0.858,0.088-0.915,0.978-1.548,1.29c-1.867,0.197-4.045,0.084-4.386,1.805c0.119,1,0.667,1.568,1.805,1.549
			c0.278,0.754,2.302-0.238,2.581,0.516c-0.01,1.797-2.186,1.426-3.612,1.807c-1.248,0.556-3.056,0.555-4.901,0.515
			c-0.433-0.428-0.205-1.513-0.258-2.322c-0.213-0.647-0.904-0.816-1.29-1.289c-1.461,0.258-1.625,1.813-1.547,3.611h-3.097
			c0.063-1.697-0.454-2.813-0.257-4.644c-0.465-1.168-1.467-1.801-2.322-2.58c-3.266-0.69-7.404-0.506-11.35-0.515
			c-3.34-0.273-6.653-0.571-10.062-0.775c-0.039-0.477-0.873-0.157-1.032-0.516c-1.465-0.427-1.995-1.789-3.354-2.321
			c-0.28-0.659-1.013-0.889-1.548-1.29c-0.432-0.324-0.877-0.985-1.547-1.032c-0.678-1.214-2.188-1.595-2.838-2.837
			c-0.93-0.876-2.078-1.534-2.579-2.839c1.634,0.446,4.749,0.565,5.417-0.773c-0.146-0.629-0.22-1.327-1.032-1.29
			c-0.091-0.683-1.315-0.233-1.548-0.774h-3.869c-0.223-0.639-1.796,0.075-2.063-0.515c-0.103-0.672-0.771-0.779-0.775-1.549
			c3.548,0.359,7.968,1.158,9.803-1.289c-2.491-2.497-8.012-1.963-12.124-2.838c-0.784-1.195-1.498-2.457-1.807-4.129
			c4.741,0.711,10.852,1.958,15.479,0.517c0.067-0.755-0.583-0.792-0.517-1.547c-0.084-0.604-1.125-0.251-1.289-0.775
			c-1.239-0.052-1.89-0.691-3.354-0.515c-2.096-0.485-4.865-0.295-6.966-0.773h-2.322c-0.616-0.158-1.872,0.323-2.064-0.259
			c-0.917,0.401-0.155-0.876-0.773-0.774c0.213-0.729-0.363-0.668-0.258-1.289c-0.407-0.539-0.535-1.358-0.516-2.322
			c3.054,1.074,6.86,1.396,10.577,1.806c1.448-0.442,3.805,0.022,4.127-1.547c-0.047-1.587-1.971-1.297-2.837-2.063
			c-1.471-0.078-2.6-0.497-4.127-0.517c-2.7-0.398-5.531-0.661-8.513-0.774c-0.776-1.719-0.726-4.262-1.033-6.449
			c0.23-0.158,0.462-0.312,0.517,0c10.63,2.87,21.618,5.383,34.311,6.191h18.316c5.933-0.43,11.846-0.881,17.799-1.29
			c1.062-0.202,1.325,0.397,2.322,0.259c6.078-0.027,9.867-2.345,15.479-2.839C106.638,76.693,104.331,84.705,100.629,91.323z
			 M108.111,61.14c-0.564,0.038-0.553,0.651-0.516,1.29c-4.802,1.562-11.047,1.681-16.252,2.838
			c-8.017-0.277-14.468,1.011-22.185,1.033c-4.092,0.406-9.844,0.436-13.932,0c-14.113,0.01-24.44-3.765-36.89-5.419
			c-0.213-3.05,2.963-2.71,5.417-3.095c1.375,0.092,2.766,1.721,3.869,0.515c0.27-1.817-1.27-1.825-1.806-2.838
			c0.179-1.198,1.189-1.563,1.806-2.321c0.887,0.112,1.446-0.103,2.064-0.259c1.47,0.078,2.6,0.496,4.128,0.516
			c0.952,0.716,2.317,0.977,3.097,0c0.341-1.718-1.076-1.677-0.775-3.354c0.599-0.174,0.691-0.856,1.29-1.031
			c1.616-0.24,1.401,1.352,3.096,1.031c0.267,0.401,0.705,0.455,1.032,0.775c0.218,0.213,0.188,1.009,0.773,0.773
			c1.472-0.489,0.465-2.545,0.258-3.612c1.874-1.342,5.242-0.69,6.966,0.259c0.951,0.769,0.963,2.476,2.322,2.839
			c1.092-0.026,1.39-0.847,1.806-1.549c-0.195-1.352-1.062-2.033-1.29-3.354c1.757-1.425,4.015-2.348,6.966-2.58
			c0.607-0.006,0.759,0.445,1.547,0.258c0.362,0.412,0.89,0.659,1.549,0.776c0.898,0.391,0.913,1.666,2.322,1.547
			c0.703,0.188,0.519-0.513,1.032-0.515c0.935-1.322-1.211-2.07-0.517-3.096c0.79,0.188,0.759-0.445,1.548-0.258
			c0.798,0.663,0.118,2.806,1.547,2.837c1.669,0.015,1.283-1.495,1.548-2.321c2.281-0.898,5.43-0.497,6.707,1.031
			c0.734,1.572-0.918,4.13,1.291,4.386c1.713,0.081,1.543-1.724,2.064-2.837c1.35-0.654,3.489-1.513,5.159-1.032
			c1.214,1.623,0.014,5.662,2.063,6.449c1.75,0.029,1.377-2.062,3.096-2.063c1.467,1.096-0.415,3.993,1.29,4.9
			c0.855,0.065,1.111-0.641,1.547-1.031c0.438-0.391,0.981-0.762,1.29-1.289c1.156-0.307,2.007-0.918,3.612-0.774
			c0.7,0.417,1.454,0.782,1.806,1.548c0.295,2.312-1.686,4.053,0.258,5.159c1.713,0.166,1.722-1.374,2.837-1.806
			c1.264-0.35,3.181-0.416,4.128,0.258C108.011,56.94,108.177,58.924,108.111,61.14z M66.835,53.917
			c-0.038,0.812,0.662,0.886,1.289,1.032c0.03-0.487,0.854-0.179,0.775-0.773v-1.807c-0.861-1.031-1.519-2.264-3.354-2.322
			c-1.496,0.224-2.358,1.081-3.354,1.807c-0.451,0.943-0.84,2.304,0.258,2.837c1.913,0.108,1.578-2.033,3.354-2.063
			C66.206,52.998,66.701,53.277,66.835,53.917z M84.893,55.207c-0.291-1.172-1.361-1.562-2.064-2.322h-3.096
			c-1.218,0.801-3.533,1.743-2.838,3.611c1.841,0.911,2.383-1.521,4.385-1.289c1.724,0.254,1.214,2.742,3.097,2.838
			C85.406,57.901,85.868,55.824,84.893,55.207z M56.516,54.433c-1.774-0.897-3.517-1.234-5.417-0.516
			c-1.079,1.241-2.341,2.302-2.322,4.644c0.509,0.438,0.592,1.3,1.807,1.032c0.95-0.082,0.607-1.457,1.032-2.063
			c0.39-0.643,0.884-1.18,1.805-1.29c1.085-0.054,1.083,0.979,2.064,1.031c0.167,0.951,0.883,1.354,1.805,1.548
			c0.83-0.532,1.087-1.239,0.775-2.322C57.485,55.871,57.071,55.082,56.516,54.433z M34.072,58.303
			c0.345,0.258,0.779,0.425,1.032,0.773c0.83,0.057,1.092-0.455,2.063-0.258c1.263,0.093,2.792,1.26,3.612,0.258
			C40.761,56.262,34.661,55.342,34.072,58.303z M70.705,58.045c-3.23-0.416-6.255,0.537-5.675,3.095
			c1.18,0.591,1.663-0.855,3.094-0.773c1.099-0.152,1.707,0.186,2.581,0.259c1.323,0.626,1.757,1.961,3.612,1.805
			C75.325,59.749,72.259,59.012,70.705,58.045z M91.601,60.108h-2.58c-0.77,0.521-1.273,1.307-2.064,1.806
			c-0.235,1.017-0.534,2.482,0.774,2.58c1.451-0.184,1.102-2.166,2.838-2.064c1.207,0.083,2.074,1.591,3.352,0.773
			C94.917,61.359,92.592,60.806,91.601,60.108z M83.087,77.65c-0.067,0.362-0.564,0.294-0.773,0.516
			c-1,2.115-3.205,4.336-2.321,7.482c0.641-0.04,0.797,0.405,1.289,0.516c1.152-0.655,1.976-1.637,2.322-3.096
			c0.508-1.384,1.402-2.381,1.29-4.386C84.434,78.195,84.144,77.54,83.087,77.65z M77.928,81.519h-1.033
			c-0.061,0.369-0.424,0.436-0.516,0.773c-0.925,1.141-1.886,2.242-2.58,3.612c-0.586,1.179-1.627,3.309-0.515,4.644
			c0.487-0.057,0.569,0.291,1.032,0.259c2.08-0.156,1.795-2.677,2.837-3.87C77.173,85.021,78.694,83.378,77.928,81.519z
			 M76.38,96.483c1.382,0.005,2.07-0.683,2.064-2.065C77.463,92.527,75.319,94.894,76.38,96.483z"/>
	</g>
</g>
<g>
</g>
<g>
</g>
<g>
</g>
<g>
</g>
<g>
</g>
<g>
</g>
<g>
</g>
<g>
</g>
<g>
</g>
<g>
</g>
<g>
</g>
<g>
</g>
<g>
</g>
<g>
</g>
<g>
</g>
</svg>
